<svg width="136" height="16" fill="none" xmlns="http://www.w3.org/2000/svg"><path d="M6.1 11.2H4.3l-.8 3.2H1.2l.8-3.2H.5l.4-2h1.6L3 6.9H1.5L2 5h1.5l.7-3h2.3l-.8 3h2l.6-3h2.3l-.7 3h1.5l-.6 2H9.4l-.5 2.3h1.4l-.5 2H8.4l-.8 3.2H5.4l.7-3.2zm-1.4-2h2L7 6.9H5.3l-.6 2.3zm13.4.2l.3 2.5h.1l.5-2.5L21.8.8h3l-5.5 14.8h-2L11.8.8H15l3 8.6zm8-8.6h3v14.7h-3V.8zm12.1 10.8c0-.5-.2-.9-.5-1.1a5 5 0 00-1.3-.8L34.9 9a9.6 9.6 0 01-1.6-1c-.5-.3-.9-.7-1.2-1.3a3.9 3.9 0 01-.5-2c0-.7.1-1.3.4-1.8.2-.6.5-1 1-1.4.4-.3 1-.6 1.5-.7a7.5 7.5 0 012-.3c1 0 1.7 0 2.5.2a6 6 0 011.8.7l-.9 2.4a7.6 7.6 0 00-3.3-.8 2.6 2.6 0 00-1.6.4c-.4.3-.5.6-.5 1 0 .5.1.8.5 1.1A52 52 0 0039.4 8l1.2 1.4c.3.5.5 1.1.5 2a4.8 4.8 0 01-.4 2 3.7 3.7 0 01-1.1 1.4 4.5 4.5 0 01-1.7.8c-.7.2-1.4.3-2.2.3a12.1 12.1 0 01-4.6-.9l1-2.5a6.1 6.1 0 001.4.6 6.8 6.8 0 002 .3c.9 0 1.5-.1 2-.4.4-.3.7-.8.7-1.3zm5-10.8h3v14.7h-3V.8zm16.2 2.6h-4.3v12.1h-2.9V3.4H48V.8h11.5v2.6zm7.9 8.2c0-.5-.2-.9-.5-1.1a5 5 0 00-1.3-.8L64 9a9.6 9.6 0 01-1.6-1c-.5-.3-1-.7-1.3-1.3a3.9 3.9 0 01-.4-2c0-.7 0-1.3.3-1.8.2-.6.6-1 1-1.4.5-.3 1-.6 1.6-.7a7.5 7.5 0 012-.3c.9 0 1.7 0 2.4.2a6 6 0 011.9.7l-1 2.4a7.6 7.6 0 00-3.3-.8 2.6 2.6 0 00-1.5.4c-.4.3-.6.6-.6 1 0 .5.2.8.5 1.1l1.3.8A52 52 0 0068.4 8c.5.3.9.8 1.2 1.3.4.5.5 1.1.5 2a4.8 4.8 0 01-.4 2 3.7 3.7 0 01-1 1.4 4.5 4.5 0 01-1.8.8c-.6.2-1.4.3-2.2.3a12.1 12.1 0 01-4.5-.9l1-2.5a6.1 6.1 0 001.4.6 6.8 6.8 0 002 .3c.8 0 1.5-.1 2-.4.4-.3.7-.8.7-1.3zM72 .8h8.7v2.6h-5.9v3.4h5.3v2.6H75v3.5h6v2.6H72V.8zm11 0a15.4 15.4 0 012-.2h2.2a9 9 0 013.3.5 5.7 5.7 0 013.6 4 11 11 0 010 5.9 6.3 6.3 0 01-3.6 4c-1 .5-2.1.7-3.6.7a25.7 25.7 0 01-2 0 27.7 27.7 0 01-2-.2V.8zm4.4 2.4a21.8 21.8 0 00-1.6 0v9.9h1.5a4.3 4.3 0 002-.4c.5-.3 1-.6 1.3-1.1a4.5 4.5 0 00.6-1.6 9.8 9.8 0 000-3.7 4.2 4.2 0 00-.6-1.6 3.4 3.4 0 00-1.2-1.1 4 4 0 00-2-.5zm8.7 5c0-2.5.5-4.4 1.6-5.7 1-1.3 2.6-2 4.6-2 1 0 2 .2 2.7.6.8.3 1.5.8 2 1.5s.9 1.5 1.1 2.4c.3 1 .4 2 .4 3.2 0 2.4-.5 4.3-1.6 5.6-1 1.3-2.6 2-4.6 2a6.5 6.5 0 01-2.8-.5 5.2 5.2 0 01-2-1.6 7 7 0 01-1-2.4c-.3-1-.4-2-.4-3.2zm3 0c0 .7 0 1.4.2 2 0 .6.3 1.2.5 1.6a2.7 2.7 0 002.5 1.4c1 0 1.8-.4 2.4-1.2.5-.8.8-2 .8-3.8 0-.8 0-1.4-.2-2a5.4 5.4 0 00-.5-1.7 2.7 2.7 0 00-2.5-1.4 2.7 2.7 0 00-2.4 1.2c-.5.8-.8 2.1-.8 3.9zm15.1-.4l-1.1-2.3h-.1l.3 2.3v7.7h-2.7V.7h2l5.6 7.8 1.2 2.3-.3-2.3V.8h2.8v14.8h-2.1l-5.6-7.8zm17.4 4.4h-4.5l-1 3.3h-3L128.5.7h2.1l5.3 14.8h-3l-1.2-3.3zM128 10h3.2l-1-3.2-.5-2.3h-.1l-.5 2.3-1 3.2z" fill="#000"/></svg>